inDegrees=no
num_controls=7
num_derivatives=13
num_iterations=187
num_multipliers=7
num_parameters=0
num_slacks=7
num_states=26
objective=0.494525
objective_accelerations=0.046666
objective_balance=0.003741
objective_effort=0.042773
objective_height=0.395589
objective_ligament=0.005756
solver_duration=2135.960915
status=Solve_Succeeded
success=true
DataType=double
version=3
OpenSimVersion=4.5
endheader
time	/jointset/ground_pelvis/pelvis_tilt/value	/jointset/ground_pelvis/pelvis_tx/value	/jointset/ground_pelvis/pelvis_ty/value	/jointset/hip_r/hip_flexion_r/value	/jointset/hip_r/hip_adduction_r/value	/jointset/hip_r/hip_rotation_r/value	/jointset/back/lumbar_extension/value	/jointset/patellofemoral_r/patellar_flexion_r/value	/jointset/knee_r/knee_flexion_r/value	/jointset/knee_r/knee_adduction_r/value	/jointset/knee_r/knee_rotation_r/value	/jointset/ankle_r/ankle_angle_r/value	/jointset/subtalar_r/subtalar_angle_r/value	/jointset/ground_pelvis/pelvis_tilt/speed	/jointset/ground_pelvis/pelvis_tx/speed	/jointset/ground_pelvis/pelvis_ty/speed	/jointset/hip_r/hip_flexion_r/speed	/jointset/hip_r/hip_adduction_r/speed	/jointset/hip_r/hip_rotation_r/speed	/jointset/back/lumbar_extension/speed	/jointset/patellofemoral_r/patellar_flexion_r/speed	/jointset/knee_r/knee_flexion_r/speed	/jointset/knee_r/knee_adduction_r/speed	/jointset/knee_r/knee_rotation_r/speed	/jointset/ankle_r/ankle_angle_r/speed	/jointset/subtalar_r/subtalar_angle_r/speed	/forceset/tau_hip_flexion_r	/forceset/tau_hip_adduction_r	/forceset/tau_hip_rotation_r	/forceset/tau_knee_flexion_r	/forceset/tau_ankle_angle_r	/forceset/tau_subtalar_angle_r	/forceset/tau_lumbar_extension	lambda_cid13_p0	lambda_cid14_p0	lambda_cid14_p1	lambda_cid14_p2	lambda_cid14_p3	lambda_cid14_p4	lambda_cid14_p5	/jointset/ground_pelvis/pelvis_tilt/accel	/jointset/ground_pelvis/pelvis_tx/accel	/jointset/ground_pelvis/pelvis_ty/accel	/jointset/hip_r/hip_flexion_r/accel	/jointset/hip_r/hip_adduction_r/accel	/jointset/hip_r/hip_rotation_r/accel	/jointset/back/lumbar_extension/accel	/jointset/patellofemoral_r/patellar_flexion_r/accel	/jointset/knee_r/knee_flexion_r/accel	/jointset/knee_r/knee_adduction_r/accel	/jointset/knee_r/knee_rotation_r/accel	/jointset/ankle_r/ankle_angle_r/accel	/jointset/subtalar_r/subtalar_angle_r/accel	gamma_cid13_p0	gamma_cid14_p0	gamma_cid14_p1	gamma_cid14_p2	gamma_cid14_p3	gamma_cid14_p4	gamma_cid14_p5
1.5	-0.1713192656194736	0.03251842651272872	0.8364348682471829	0.8521469905741568	-0.2426278162599635	-0.09720777518279511	-0.294828716709884	0.7782661078490097	0.7782661078491044	0.06439918872122172	0.1743810225985828	0.2668697047933606	0.04011944765250577	0.3957789588152742	0.1748994049225086	0.471494590298962	-1.954124400416335	0.03489642017124906	-0.4369639119660921	0.6973211329780379	-2.091611421580039	-2.091611421580136	0.1798720994670263	0.001093723185057868	-0.6260898038710969	-0.1165210630400727	-0.1074023081524368	-0.01571675848453668	0.01343460064545384	-0.3437763845647814	0.07458206413313699	-0.01391813823877311	0.150761793499038	-26.71531930682795	-17.26963030971939	-5.602141076141606	-2.60623817274796	0.5087928965486912	-652.0314622641256	54.74115595343519	0.2398059612139908	0.4466830866296604	-0.5962192192650553	-0.9950337398361192	0.1512864387651035	-0.3464789834361803	1.50350468647149	-1.301462305916449	-1.301462305916531	0.5332937228012348	-0.03426447840023374	-0.6367501926484526	0.09515488557765051	1.569809100246835e-07	9.525893147650202e-08	-1.593665966707326e-06	7.573106278112011e-07	1.16476310797531e-07	2.076381828344656e-07	-1.074421331054868e-06
1.51	-0.1673498501088026	0.03428950831584764	0.8411189827684505	0.832558236786175	-0.242272058175901	-0.1015951879173214	-0.2877816586683248	0.757287711035089	0.7572877110351101	0.06622563851924035	0.1743917768435116	0.2605775935324208	0.0389580842726813	0.3980421330390853	0.1792879008766916	0.4652241147871214	-1.963344939081836	0.03625317946969227	-0.4404924290993347	0.7119800642706695	-2.103759851588261	-2.103759851588245	0.1854143191522415	0.001055275171144375	-0.6322361273377809	-0.115733392848784	-0.1005624223767407	-0.01791241946181665	0.0128961786236725	-0.3397359858891122	0.07772304395756369	-0.01471297637436794	0.1445345072843456	-27.98817204712684	-16.04804155753363	-5.587362785286282	-2.775458441072995	0.1264470529731612	-647.4093536992308	54.88619681440561	0.2102811701372184	0.430598086649998	-0.6580414232251895	-0.8433383159884795	0.1275492183250613	-0.3518694252405011	1.430525691202405	-1.125354312444049	-1.125354312427125	0.5639347210616836	0.01122506135187736	-0.5890858756406604	0.07313134320275898	1.669150926205249e-07	1.046989623891115e-07	-1.688449198929675e-06	8.108408211248764e-07	1.170217943458927e-07	2.361547896583218e-07	-1.141206419345921e-06
1.52	-0.1633596612524582	0.03610360812587585	0.8457372765933833	0.8128857227343222	-0.241902796790266	-0.1060170520925746	-0.2805913236457304	0.7361970657282522	0.7361970657282004	0.06810736024004554	0.1744021186131489	0.2542269165464217	0.03780510924622937	0.3999336279497965	0.1835030063043702	0.4583304510320229	-1.970876453190593	0.03759708048578139	-0.4438542001114655	0.7259765291850373	-2.114061120163241	-2.114061120163111	0.190926484024657	0.001011228126781754	-0.6378029488829565	-0.114843392365564	-0.09372253660104722	-0.02010808043909776	0.01235775660190019	-0.3356955872134435	0.0808640237819903	-0.01550781450996433	0.1383072210696508	-29.24404748506251	-14.83089164054013	-5.571062831287643	-2.947547521005032	-0.262864799305633	-642.8616790981179	55.09178543562344	0.1654700985940386	0.4120049813287716	-0.7208568679166368	-0.6572288284873842	0.1487147822942933	-0.3131297592138379	1.371011410818755	-0.9320300192677844	-0.9320300192677704	0.5272827602412886	-0.03538428449007689	-0.5208498083468118	0.1156209439639353	1.775054070924888e-07	1.13767930217119e-07	-1.797183161002275e-06	8.621790127111632e-07	1.187133689182091e-07	2.671575124770206e-07	-1.214239287413583e-06
1.53	-0.1593523074453234	0.03795894168041406	0.8502836134148586	0.7931462083210721	-0.2415202635049687	-0.1104717383034517	-0.2732646563797552	0.7150126899411762	0.7150126899410219	0.07004422853063218	0.1744121151736754	0.2478234867423665	0.03666142258458597	0.4014768220587712	0.1875290072733029	0.4508397946873408	-1.976737251506842	0.0389036621321943	-0.4470458130032919	0.7392243103074191	-2.122487999251621	-2.122487999251544	0.1964491024461019	0.0009828975882517064	-0.6427782224996988	-0.1138793807390095	-0.086770568968026	-0.02247739093517453	0.0117856881461052	-0.3319452380339464	0.08424628604856409	-0.01641870201941914	0.1319930458487543	-30.48184175300493	-13.55720220696573	-5.601806233768449	-3.104662781750805	-0.6526307317223016	-638.5483937199034	55.26652469897127	0.1397065684687926	0.3927176911741389	-0.7776740414424782	-0.5071149331765423	0.120709172009776	-0.3163259219889347	1.28176940757568	-0.7491501207053908	-0.7491501207131982	0.5647898349197795	0.01282272306100281	-0.4701029568733476	0.08877265512222343	1.887928616828329e-07	1.224426435177369e-07	-1.920739773540764e-06	9.111882024620999e-07	1.216226652034773e-07	3.008017335402397e-07	-1.293910421493891e-06
1.54	-0.1553313291968141	0.03985349925194132	0.8547521428681474	0.7733567640046628	-0.2411248485399686	-0.1149571704168111	-0.2658094897136305	0.6937538187097998	0.6937538187095419	0.07203633069579624	0.1744217044611359	0.2413734568384368	0.03552777231583232	0.4026585162245285	0.1913478097021816	0.4427689773947271	-1.980862433822411	0.04017341642640729	-0.4500033806079943	0.7516764092149122	-2.12896020902329	-2.128960209023265	0.2019732589404943	0.0009297735135401829	-0.6471229688578576	-0.1128361137876143	-0.07981860133500765	-0.02484670143125215	0.0112136196903189	-0.32819488885445	0.08762854831513776	-0.01732958952887511	0.1256788706278553	-31.70093072107047	-12.28568798617071	-5.63036146369783	-3.265061803274679	-1.056201382411002	-634.2774653142839	55.50310262628737	0.09317010995059957	0.3705652733179618	-0.8368890575029223	-0.3101056283516522	0.1413493118543189	-0.2663207017890132	1.211874967841052	-0.5410961559255396	-0.5410961559255407	0.527590374830775	-0.04034299172639343	-0.3947443566301184	0.1314720089320727	1.98299578851004e-07	1.203195157737933e-07	-2.048526801054272e-06	9.224633741609274e-07	1.354217709422723e-07	3.073391801787177e-07	-1.362037381588896e-06
1.55	-0.1513005224767358	0.04178513141147655	0.8591371077813222	0.753535088165086	-0.2407169496074821	-0.1194713251700381	-0.2582338196174532	0.6724402428744299	0.6724402428743633	0.07408349905868225	0.1744309229428123	0.2348831939084737	0.03440494621276267	0.4034397343352835	0.1949356526791573	0.4341354423588547	-1.983169123613199	0.04139928711518152	-0.4527906474457659	0.763300431583253	-2.133414280818733	-2.133414280818783	0.2074555342601156	0.0009117020758733701	-0.6508212775682577	-0.1117155457170202	-0.07274098895289306	-0.02736567065204611	0.01059615239450379	-0.3247423168599819	0.091214690489849	-0.01837512785163248	0.119268898362899	-32.88926789455562	-10.97487093910661	-5.717725621530634	-3.407847133974009	-1.423276959105861	-630.2967957774979	55.69324519375404	0.06114186021337333	0.3464836618937909	-0.8898163736638199	-0.1453979648261793	0.1120678874228757	-0.2791170234554284	1.114089105753387	-0.3465030858086511	-0.346503085819993	0.5575228900700748	0.01727702384968293	-0.3410753699104341	0.1041315224520167	2.057545768153674e-07	1.057553972611165e-07	-2.181188002343346e-06	8.902623946258054e-07	1.617678310514346e-07	2.826449084582566e-07	-1.416863445570398e-06
